<svg width="24" height="24" viewBox="0 0 24 24" fill="none" xmlns="http://www.w3.org/2000/svg">
<g clip-path="url(#clip0_678_16882)">
<mask id="mask0_678_16882" style="mask-type:luminance" maskUnits="userSpaceOnUse" x="0" y="0" width="24" height="24">
<path d="M24 0H0V24H24V0Z" fill="white"/>
</mask>
<g mask="url(#mask0_678_16882)">
<path d="M9.41421 11L12.7071 7.70711C13.0976 7.31658 13.0976 6.68342 12.7071 6.29289C12.3166 5.90237 11.6834 5.90237 11.2929 6.29289L6.29289 11.2929C5.90237 11.6834 5.90237 12.3166 6.29289 12.7071L11.2929 17.7071C11.6834 18.0976 12.3166 18.0976 12.7071 17.7071C13.0976 17.3166 13.0976 16.6834 12.7071 16.2929L9.41421 13H21C21.5523 13 22 12.5523 22 12C22 11.4477 21.5523 11 21 11H9.41421ZM2 21C2 21.5523 2.44772 22 3 22C3.55228 22 4 21.5523 4 21V3C4 2.44772 3.55228 2 3 2C2.44772 2 2 2.44772 2 3V21Z" fill="#111111"/>
</g>
</g>
<defs>
<clipPath id="clip0_678_16882">
<rect width="24" height="24" fill="white"/>
</clipPath>
</defs>
</svg>
